# xmcd
#
# Track frame offsets: 
#        150
#        16964
#        30692
#        44868
#        57517
#        71256
#        84473
#        97584
#        113527
#        128144
#        144160
#        159448
#        173133
#        192161
#        209110
#        221845
#        235688
#
# Disc length: 3350 seconds
#
# Revision: 5
# Processed by: cddbd v1.5.2PL0 Copyright (c) Steve Scherf et al.
# Submitted via: ExactAudioCopy v0.99pb5
#
DISCID=e70d1411
DTITLE=Various Artist - Pure... Country Stars - CD 2
DYEAR=2014
DGENRE=Country
TTITLE0=Johnny Cash - (Ghost) riders in the sky
TTITLE1=Highwaymen - Highwayman
TTITLE2=Lorrie Morgan - Shakin' things up
TTITLE3=George Jones - She thinks I still care
TTITLE4=George Jones and Tammy Wynette - Golden ring
TTITLE5=Tammy Wynette - D.I.V.O.R.C.E
TTITLE6=Dolly Parton - I will always love you
TTITLE7=Willie Nelson - Always on my mind
TTITLE8=Rodney Crowell - She's crazy for leaving
TTITLE9=Wade Hayes - The day that she left Tulsa (in a chevy)
TTITLE10=Blackhawk - Goodbye says it all
TTITLE11=Charley Pride - You win again
TTITLE12=Merle Haggard - Are the good times really over (I wish a buck
TTITLE12=was still silver)
TTITLE13=Doug Supernaw - I don't call him daddy
TTITLE14=Alabama - I'm in a hurry (and don't know why)
TTITLE15=Collin Raye - That's my story
TTITLE16=Kris Kristofferson - Why me
EXTD=
EXTT0=
EXTT1=
EXTT2=
EXTT3=
EXTT4=
EXTT5=
EXTT6=
EXTT7=
EXTT8=
EXTT9=
EXTT10=
EXTT11=
EXTT12=
EXTT13=
EXTT14=
EXTT15=
EXTT16=
PLAYORDER=
